<svg id="visual" viewBox="0 0 900 50" width="900" height="50" xmlns="http://www.w3.org/2000/svg" xmlns:xlink="http://www.w3.org/1999/xlink" version="1.1"><path d="M0 32L10.7 26.7C21.3 21.3 42.7 10.7 64.2 10C85.7 9.3 107.3 18.7 128.8 18.7C150.3 18.7 171.7 9.3 193 9.5C214.3 9.7 235.7 19.3 257 25.3C278.3 31.3 299.7 33.7 321.2 29.8C342.7 26 364.3 16 385.8 17.5C407.3 19 428.7 32 450 34.2C471.3 36.3 492.7 27.7 514.2 25.3C535.7 23 557.3 27 578.8 31.7C600.3 36.3 621.7 41.7 643 37.5C664.3 33.3 685.7 19.7 707 12.5C728.3 5.3 749.7 4.7 771.2 11.5C792.7 18.3 814.3 32.7 835.8 39.5C857.3 46.3 878.7 45.7 889.3 45.3L900 45L900 0L889.3 0C878.7 0 857.3 0 835.8 0C814.3 0 792.7 0 771.2 0C749.7 0 728.3 0 707 0C685.7 0 664.3 0 643 0C621.7 0 600.3 0 578.8 0C557.3 0 535.7 0 514.2 0C492.7 0 471.3 0 450 0C428.7 0 407.3 0 385.8 0C364.3 0 342.7 0 321.2 0C299.7 0 278.3 0 257 0C235.7 0 214.3 0 193 0C171.7 0 150.3 0 128.8 0C107.3 0 85.7 0 64.2 0C42.7 0 21.3 0 10.7 0L0 0Z" fill="#6600FF" stroke-linecap="round" stroke-linejoin="miter"></path></svg>