<svg id="visual" viewBox="0 0 900 50" width="900" height="50" xmlns="http://www.w3.org/2000/svg" xmlns:xlink="http://www.w3.org/1999/xlink" version="1.1"><path d="M0 20L9.3 18C18.7 16 37.3 12 56.2 8.7C75 5.3 94 2.7 112.8 7.2C131.7 11.7 150.3 23.3 169 27.8C187.7 32.3 206.3 29.7 225 26.5C243.7 23.3 262.3 19.7 281.2 17.5C300 15.3 319 14.7 337.8 19.8C356.7 25 375.3 36 394 35.5C412.7 35 431.3 23 450 20.2C468.7 17.3 487.3 23.7 506.2 22.2C525 20.7 544 11.3 562.8 13.3C581.7 15.3 600.3 28.7 619 31.7C637.7 34.7 656.3 27.3 675 24C693.7 20.7 712.3 21.3 731.2 24.7C750 28 769 34 787.8 35.8C806.7 37.7 825.3 35.3 844 28.7C862.7 22 881.3 11 890.7 5.5L900 0L900 0L890.7 0C881.3 0 862.7 0 844 0C825.3 0 806.7 0 787.8 0C769 0 750 0 731.2 0C712.3 0 693.7 0 675 0C656.3 0 637.7 0 619 0C600.3 0 581.7 0 562.8 0C544 0 525 0 506.2 0C487.3 0 468.7 0 450 0C431.3 0 412.7 0 394 0C375.3 0 356.7 0 337.8 0C319 0 300 0 281.2 0C262.3 0 243.7 0 225 0C206.3 0 187.7 0 169 0C150.3 0 131.7 0 112.8 0C94 0 75 0 56.2 0C37.3 0 18.7 0 9.3 0L0 0Z" fill="#F7770F" stroke-linecap="round" stroke-linejoin="miter"></path></svg>